<svg width="320" height="320" viewBox="0 0 320 320" fill="none" xmlns="http://www.w3.org/2000/svg">
<rect width="320" height="320" fill="#2C2C2C"/>
<g clip-path="url(#clip0)">
<path d="M0 0H320V320H0V0Z" fill="#2C2C2C"/>
<path d="M268.773 80.3133C245.101 49.14 207.871 29.0449 166 29.0449C94.4791 29.0449 36.5 87.6755 36.5 160C36.5 232.324 94.4791 290.955 166 290.955C207.871 290.955 245.101 270.86 268.773 239.687C244.483 273.223 205.257 295 161 295C87.27 295 27.5 234.558 27.5 160C27.5 85.4416 87.27 25 161 25C205.257 25 244.484 46.7774 268.773 80.3133Z" fill="url(#paint0_angular)"/>
<path d="M35.8408 191V140.95H29.6808L29.6808 191H35.8408Z" fill="#8A6DFF"/>
<path d="M131.955 191V190.3L117.885 170.28L117.255 169.79C124.185 169.44 130.835 163.35 130.835 155.3C130.835 146.13 123.975 140.95 116.485 140.95H96.1852L96.2552 191H102.415V170H110.325C111.865 172.1 125.515 191 125.515 191H131.955ZM125.025 155.37C125.025 160.55 120.545 164.47 115.995 164.47H102.415V146.34H115.925C120.545 146.34 125.025 149.7 125.025 155.37Z" fill="#8A6DFF"/>
<path d="M197.773 191V140.95H191.613V191H197.773Z" fill="#8A6DFF"/>
<path d="M293.748 176.51C293.748 168.74 288.638 165.52 283.458 163.84C281.638 163.28 279.328 162.79 277.018 162.37C275.198 162.02 273.098 161.67 271.418 161.18C267.708 160.06 262.388 158.45 262.388 154.18C262.388 149.07 267.358 145.57 275.128 145.57C280.308 145.57 285.348 147.53 289.828 151.17L292.838 146.55C287.938 142.35 281.568 140.04 275.128 140.04C267.428 140.04 256.438 143.19 256.438 154.32C256.438 163.35 264.978 166.5 272.888 167.83C274.148 168.18 275.618 168.39 277.158 168.6C282.198 169.51 287.798 170.98 287.798 176.51C287.798 183.51 279.538 185.96 273.728 185.96C269.108 185.96 264.068 183.93 258.958 180.57L256.438 185.54C261.898 189.46 267.638 191.56 274.078 191.56C281.148 191.56 293.748 188.62 293.748 176.51Z" fill="#8A6DFF"/>
<rect width="7.77816" height="7.77816" transform="matrix(0.707106 -0.707108 0.707106 0.707108 189.001 125.501)" fill="#8A6DFF"/>
</g>
<path d="M98.5932 233C98.4252 233 98.3132 232.925 98.2572 232.776L96.9692 228.828C96.9505 228.772 96.9132 228.744 96.8572 228.744H87.6732C87.6172 228.744 87.5798 228.772 87.5612 228.828L86.2732 232.776C86.2172 232.925 86.1052 233 85.9372 233H85.6572C85.4518 233 85.3772 232.897 85.4332 232.692L91.7052 213.624C91.7612 213.475 91.8732 213.4 92.0412 213.4H92.4332C92.6012 213.4 92.7132 213.475 92.7692 213.624L99.0692 232.692L99.0972 232.804C99.0972 232.935 99.0132 233 98.8452 233H98.5932ZM87.8412 227.848C87.8225 227.885 87.8225 227.923 87.8412 227.96C87.8785 227.979 87.9158 227.988 87.9532 227.988H96.5492C96.5865 227.988 96.6145 227.979 96.6332 227.96C96.6518 227.923 96.6518 227.885 96.6332 227.848L92.3212 214.716C92.3025 214.679 92.2745 214.66 92.2372 214.66C92.1998 214.66 92.1718 214.679 92.1532 214.716L87.8412 227.848ZM122.235 233C122.067 233 121.955 232.935 121.899 232.804L117.419 223.62C117.4 223.564 117.363 223.536 117.307 223.536H111.343C111.268 223.536 111.231 223.573 111.231 223.648V232.72C111.231 232.907 111.137 233 110.951 233H110.671C110.484 233 110.391 232.907 110.391 232.72V213.68C110.391 213.493 110.484 213.4 110.671 213.4H117.447C118.959 213.4 120.172 213.876 121.087 214.828C122.02 215.761 122.487 216.984 122.487 218.496C122.487 219.859 122.113 220.988 121.367 221.884C120.62 222.761 119.612 223.284 118.343 223.452C118.249 223.489 118.221 223.536 118.259 223.592L122.683 232.664C122.701 232.701 122.711 232.748 122.711 232.804C122.711 232.935 122.636 233 122.487 233H122.235ZM111.343 214.184C111.268 214.184 111.231 214.221 111.231 214.296V222.668C111.231 222.743 111.268 222.78 111.343 222.78H117.447C118.697 222.78 119.705 222.388 120.471 221.604C121.255 220.801 121.647 219.765 121.647 218.496C121.647 217.208 121.255 216.172 120.471 215.388C119.705 214.585 118.697 214.184 117.447 214.184H111.343ZM145.288 213.4C145.474 213.4 145.568 213.493 145.568 213.68V213.904C145.568 214.091 145.474 214.184 145.288 214.184H139.576C139.501 214.184 139.464 214.221 139.464 214.296V232.72C139.464 232.907 139.37 233 139.184 233H138.904C138.717 233 138.624 232.907 138.624 232.72V214.296C138.624 214.221 138.586 214.184 138.512 214.184H133.08C132.893 214.184 132.8 214.091 132.8 213.904V213.68C132.8 213.493 132.893 213.4 133.08 213.4H145.288ZM169.356 213.904C169.356 214.091 169.262 214.184 169.076 214.184H158.128C158.053 214.184 158.016 214.221 158.016 214.296V222.668C158.016 222.743 158.053 222.78 158.128 222.78H166.024C166.21 222.78 166.304 222.873 166.304 223.06V223.284C166.304 223.471 166.21 223.564 166.024 223.564H158.128C158.053 223.564 158.016 223.601 158.016 223.676V232.104C158.016 232.179 158.053 232.216 158.128 232.216H169.076C169.262 232.216 169.356 232.309 169.356 232.496V232.72C169.356 232.907 169.262 233 169.076 233H157.456C157.269 233 157.176 232.907 157.176 232.72V213.68C157.176 213.493 157.269 213.4 157.456 213.4H169.076C169.262 213.4 169.356 213.493 169.356 213.68V213.904ZM194.252 213.596C194.346 213.465 194.458 213.4 194.588 213.4H194.924C195.111 213.4 195.204 213.493 195.204 213.68V232.72C195.204 232.907 195.111 233 194.924 233H194.644C194.458 233 194.364 232.907 194.364 232.72V215.136C194.364 215.08 194.346 215.052 194.308 215.052C194.271 215.033 194.243 215.052 194.224 215.108L188.792 223.592C188.699 223.723 188.587 223.788 188.456 223.788H188.288C188.158 223.788 188.046 223.723 187.952 223.592L182.464 215.164C182.446 215.108 182.418 215.089 182.38 215.108C182.343 215.127 182.324 215.164 182.324 215.22V232.72C182.324 232.907 182.231 233 182.044 233H181.764C181.578 233 181.484 232.907 181.484 232.72V213.68C181.484 213.493 181.578 213.4 181.764 213.4H182.1C182.231 213.4 182.343 213.465 182.436 213.596L188.288 222.64C188.307 222.659 188.335 222.668 188.372 222.668C188.41 222.668 188.438 222.659 188.456 222.64L194.252 213.596ZM208.807 233C208.621 233 208.527 232.907 208.527 232.72V213.68C208.527 213.493 208.621 213.4 208.807 213.4H209.087C209.274 213.4 209.367 213.493 209.367 213.68V232.72C209.367 232.907 209.274 233 209.087 233H208.807ZM227.759 233.224C225.743 233.224 224.157 232.785 222.999 231.908C221.842 231.012 221.263 229.817 221.263 228.324V227.344C221.263 227.157 221.357 227.064 221.543 227.064H221.767C221.954 227.064 222.047 227.157 222.047 227.344V228.268C222.047 229.537 222.561 230.555 223.587 231.32C224.614 232.067 226.023 232.44 227.815 232.44C229.514 232.44 230.811 232.085 231.707 231.376C232.622 230.667 233.079 229.687 233.079 228.436C233.079 227.671 232.893 227.008 232.519 226.448C232.146 225.888 231.549 225.356 230.727 224.852C229.925 224.348 228.786 223.779 227.311 223.144C225.837 222.509 224.735 221.987 224.007 221.576C223.298 221.165 222.738 220.661 222.327 220.064C221.917 219.467 221.711 218.701 221.711 217.768C221.711 216.275 222.206 215.136 223.195 214.352C224.185 213.568 225.603 213.176 227.451 213.176C229.449 213.176 230.989 213.624 232.071 214.52C233.173 215.397 233.723 216.592 233.723 218.104V218.776C233.723 218.963 233.63 219.056 233.443 219.056H233.163C232.977 219.056 232.883 218.963 232.883 218.776V218.16C232.883 216.891 232.398 215.873 231.427 215.108C230.475 214.343 229.122 213.96 227.367 213.96C225.799 213.96 224.595 214.277 223.755 214.912C222.934 215.547 222.523 216.48 222.523 217.712C222.523 218.515 222.71 219.177 223.083 219.7C223.457 220.204 223.979 220.643 224.651 221.016C225.323 221.371 226.387 221.847 227.843 222.444C229.971 223.34 231.511 224.217 232.463 225.076C233.434 225.935 233.919 227.036 233.919 228.38C233.919 229.855 233.378 231.031 232.295 231.908C231.231 232.785 229.719 233.224 227.759 233.224Z" fill="#FCFCFC"/>
<defs>
<radialGradient id="paint0_angular" cx="0" cy="0" r="1" gradientUnits="userSpaceOnUse" gradientTransform="translate(169 160.506) rotate(-38.2511) scale(54.1191 54.7182)">
<stop offset="0.0788968" stop-color="#1D1D1D"/>
<stop offset="0.19042" stop-color="#8F8F8F"/>
</radialGradient>
<clipPath id="clip0">
<path d="M0 0H320V320H0V0Z" fill="white"/>
</clipPath>
</defs>
</svg>
